<svg width="24" height="24" viewBox="0 0 24 24" fill="none" xmlns="http://www.w3.org/2000/svg">
<path d="M12 8V16" stroke="#CA1F7B" stroke-width="2" stroke-linecap="round" stroke-linejoin="round"/>
<path d="M2.69991 10.3007C2.47586 10.5245 2.29812 10.7903 2.17685 11.0828C2.05558 11.3754 1.99316 11.689 1.99316 12.0057C1.99316 12.3223 2.05558 12.6359 2.17685 12.9285C2.29812 13.221 2.47586 13.4868 2.69991 13.7107L10.2899 21.3007C10.5137 21.5247 10.7795 21.7024 11.0721 21.8237C11.3646 21.945 11.6782 22.0074 11.9949 22.0074C12.3116 22.0074 12.6252 21.945 12.9177 21.8237C13.2103 21.7024 13.4761 21.5247 13.6999 21.3007L21.2899 13.7107C21.514 13.4868 21.6917 13.221 21.813 12.9285C21.9342 12.6359 21.9967 12.3223 21.9967 12.0057C21.9967 11.689 21.9342 11.3754 21.813 11.0828C21.6917 10.7903 21.514 10.5245 21.2899 10.3007L13.6999 2.71065C13.4761 2.4866 13.2103 2.30886 12.9177 2.18759C12.6252 2.06632 12.3116 2.00391 11.9949 2.00391C11.6782 2.00391 11.3646 2.06632 11.0721 2.18759C10.7795 2.30886 10.5137 2.4866 10.2899 2.71065L2.69991 10.3007Z" stroke="#CA1F7B" stroke-width="2" stroke-linecap="round" stroke-linejoin="round"/>
<path d="M8 12H16" stroke="#CA1F7B" stroke-width="2" stroke-linecap="round" stroke-linejoin="round"/>
</svg>
