<svg width="34" height="34" viewBox="0 0 34 34" fill="none" xmlns="http://www.w3.org/2000/svg">
<path d="M7.0835 7.08417C7.08335 6.58564 7.21474 6.09589 7.46441 5.66438C7.71409 5.23286 8.07319 4.87487 8.50548 4.62653C8.93776 4.3782 9.42791 4.24832 9.92645 4.25002C10.425 4.25171 10.9142 4.38491 11.3448 4.63617L28.3406 14.55C28.7695 14.7989 29.1256 15.156 29.3732 15.5856C29.6209 16.0152 29.7515 16.5023 29.7519 16.9982C29.7523 17.4941 29.6226 17.9814 29.3757 18.4115C29.1288 18.8415 28.7733 19.1992 28.3448 19.4488L11.3448 29.3655C10.9142 29.6168 10.425 29.75 9.92645 29.7517C9.42791 29.7534 8.93776 29.6235 8.50548 29.3751C8.07319 29.1268 7.71409 28.7688 7.46441 28.3373C7.21474 27.9058 7.08335 27.416 7.0835 26.9175V7.08417Z" stroke="#222A68" stroke-width="2" stroke-linecap="round" stroke-linejoin="round"/>
</svg>
