<svg width="40" height="48" viewBox="0 0 40 48" fill="none" xmlns="http://www.w3.org/2000/svg">
<rect x="0.75" y="0.75" width="38.2082" height="45.9672" rx="3.81416" fill="#FFF5FA" stroke="#222A68" stroke-width="1.5"/>
<path d="M9.24236 21.2233C8.44526 17.4616 8.44526 13.5746 9.24236 9.81293C9.34709 9.43092 9.54946 9.08275 9.82955 8.80266C10.1096 8.52257 10.4578 8.32021 10.8398 8.21547C16.9597 7.20161 23.2047 7.20161 29.3247 8.21547C29.7067 8.32021 30.0548 8.52257 30.3349 8.80266C30.615 9.08275 30.8174 9.43092 30.9221 9.81293C31.7192 13.5746 31.7192 17.4616 30.9221 21.2233C30.8174 21.6053 30.615 21.9535 30.3349 22.2336C30.0548 22.5137 29.7067 22.716 29.3247 22.8208C23.2048 23.8348 16.9597 23.8348 10.8398 22.8208C10.4578 22.716 10.1096 22.5137 9.82955 22.2336C9.54946 21.9535 9.34709 21.6053 9.24236 21.2233Z" stroke="#222A68" stroke-width="1.44532" stroke-linecap="round" stroke-linejoin="round"/>
<path d="M17.7998 18.9419L23.505 15.5188L17.7998 12.0957V18.9419Z" stroke="#222A68" stroke-width="1.44532" stroke-linecap="round" stroke-linejoin="round"/>
</svg>
